<?xml version="1.0" encoding="utf-8"?>
<!-- Generator: Adobe Illustrator 21.1.0, SVG Export Plug-In . SVG Version: 6.00 Build 0)  -->
<svg version="1.1" id="Layer_1" xmlns="http://www.w3.org/2000/svg" xmlns:xlink="http://www.w3.org/1999/xlink" x="0px" y="0px"
	 viewBox="0 0 178.8 37.1" style="enable-background:new 0 0 178.8 37.1;" xml:space="preserve">
<style type="text/css">
	.st0{fill:#FFFFFF;}
	.st1{fill:url(#SVGID_1_);}
	.st2{fill:url(#SVGID_2_);}
	.st3{fill:url(#SVGID_3_);}
	.st4{fill:url(#SVGID_4_);}
	.st5{fill:url(#SVGID_5_);}
</style>
<title>applearn</title>
<g>
	<g>
		<path class="st0" d="M59.8,30.8l-1.5-4.9h-8.6l-1.6,4.9h-4.6l8.9-24.5h3.5l8.9,24.5H59.8z M57.1,22.3l-3.2-10l-3.2,10H57.1z"/>
		<path class="st0" d="M66.5,12.8h3.3l0.7,2c0.5-0.7,1.2-1.3,1.9-1.7c0.7-0.4,1.6-0.6,2.4-0.6c1,0,2,0.2,2.9,0.5
			c0.8,0.4,1.5,0.9,2.1,1.6c0.6,0.8,1,1.6,1.3,2.5c0.3,1.1,0.4,2.3,0.4,3.4V23c0,1.2-0.1,2.3-0.4,3.4c-0.2,0.9-0.7,1.8-1.3,2.5
			c-0.6,0.7-1.3,1.2-2.1,1.6c-0.9,0.4-1.9,0.6-2.8,0.5c-0.8,0-1.5-0.2-2.2-0.5c-0.7-0.4-1.3-0.9-1.9-1.5v7.2h-4.3V12.8z M73.9,27.4
			c1,0,1.9-0.5,2.5-1.3c0.6-0.9,0.9-2.1,0.9-3.6v-1.2c0-0.7-0.1-1.4-0.2-2.1c-0.1-0.6-0.3-1.1-0.7-1.6c-0.3-0.4-0.6-0.8-1-1
			c-0.4-0.2-0.9-0.4-1.4-0.4c-1,0-1.8,0.4-2.4,1.1c-0.6,0.7-0.9,1.9-0.9,3.4V23c0,1.5,0.3,2.7,0.9,3.4C72.1,27.1,73,27.4,73.9,27.4
			L73.9,27.4z"/>
		<path class="st0" d="M84.4,12.8h3.3l0.7,2c0.5-0.7,1.2-1.3,1.9-1.7c0.7-0.4,1.6-0.6,2.4-0.6c1,0,2,0.2,2.9,0.5
			c0.8,0.4,1.5,0.9,2.1,1.6c0.6,0.8,1,1.6,1.3,2.5c0.3,1.1,0.4,2.3,0.4,3.4V23c0,1.2-0.1,2.3-0.4,3.4c-0.2,0.9-0.7,1.8-1.3,2.5
			c-0.6,0.7-1.3,1.2-2.1,1.6c-0.9,0.4-1.9,0.6-2.8,0.5c-0.8,0-1.5-0.2-2.2-0.5c-0.7-0.4-1.3-0.9-1.9-1.5v7.2h-4.3V12.8z M91.8,27.4
			c1,0,1.9-0.5,2.5-1.3c0.6-0.9,0.9-2.1,0.9-3.6v-1.2c0-0.7-0.1-1.4-0.2-2.1c-0.1-0.6-0.3-1.1-0.7-1.6c-0.3-0.4-0.6-0.8-1-1
			c-0.4-0.2-0.9-0.4-1.4-0.4c-1,0-1.8,0.4-2.4,1.1c-0.6,0.7-0.9,1.9-0.9,3.4V23c0,1.5,0.3,2.7,0.9,3.4C90,27.1,90.9,27.4,91.8,27.4
			L91.8,27.4z"/>
		<path class="st0" d="M102.5,6.2h4.6v20.5h9.4v4h-14.1V6.2z"/>
		<path class="st0" d="M121.7,23c0,0.7,0.1,1.3,0.3,2c0.1,0.5,0.4,1,0.7,1.4c0.3,0.3,0.6,0.6,1,0.8c0.4,0.2,0.8,0.3,1.3,0.3
			c1,0,1.7-0.2,2.2-0.6c0.5-0.4,0.9-1,1.1-1.9h4.1c-0.2,0.9-0.5,1.9-1,2.7c-0.4,0.7-1,1.4-1.6,1.9c-0.6,0.5-1.4,0.9-2.2,1.1
			c-0.9,0.3-1.7,0.4-2.6,0.4c-1.1,0-2.1-0.2-3.1-0.6c-0.9-0.4-1.7-1-2.4-1.8c-0.7-0.9-1.2-1.8-1.5-2.9c-0.4-1.3-0.5-2.6-0.5-3.9
			c0-1.4,0.2-2.7,0.6-4c0.3-1,0.8-2,1.5-2.9c0.6-0.8,1.4-1.3,2.3-1.7c0.9-0.4,1.9-0.6,3-0.6c1.1,0,2.1,0.2,3.1,0.6
			c0.9,0.4,1.8,0.9,2.5,1.7c0.7,0.8,1.3,1.7,1.6,2.8c0.4,1.2,0.6,2.5,0.6,3.8V23L121.7,23z M128.6,20.2c0-0.6-0.2-1.3-0.4-1.9
			c-0.2-0.5-0.4-0.9-0.7-1.3c-0.3-0.3-0.7-0.6-1.1-0.8c-0.4-0.2-0.9-0.2-1.3-0.2c-0.9,0-1.7,0.3-2.3,1c-0.6,0.7-1,1.7-1.1,3.1H128.6
			z"/>
		<path class="st0" d="M142.2,12.6c1,0,2,0.1,3,0.5c0.9,0.3,1.7,0.7,2.4,1.3c0.7,0.6,1.2,1.3,1.5,2.1c0.4,0.8,0.6,1.8,0.5,2.7v11.6
			h-2.9l-0.7-1.3c-0.5,0.5-1.2,0.9-1.8,1.1c-0.6,0.3-1.3,0.4-2,0.4c-1,0-2-0.2-3-0.6c-0.9-0.4-1.7-1-2.3-1.7
			c-0.7-0.8-1.2-1.8-1.5-2.9c-0.4-1.3-0.6-2.6-0.6-4c0-1.2,0.1-2.5,0.5-3.7c0.3-1.1,0.7-2,1.4-2.9c0.6-0.8,1.4-1.5,2.3-1.9
			C139.9,12.8,141.1,12.5,142.2,12.6z M145.4,19.4c0-0.4-0.1-0.8-0.2-1.2c-0.1-0.4-0.3-0.7-0.6-1c-0.3-0.3-0.6-0.5-1-0.7
			c-0.4-0.2-0.9-0.3-1.4-0.2c-1,0-1.9,0.5-2.4,1.4c-0.5,0.9-0.8,2.2-0.8,4c0,0.9,0.1,1.8,0.2,2.8c0.1,0.6,0.3,1.2,0.7,1.8
			c0.2,0.4,0.6,0.8,1,1c0.4,0.2,0.8,0.3,1.3,0.3c0.3,0,0.6,0,0.8-0.1c0.3,0,0.6-0.1,0.9-0.2c0.3-0.1,0.5-0.1,0.8-0.2
			c0.2-0.1,0.5-0.2,0.7-0.3L145.4,19.4z"/>
		<path class="st0" d="M161.2,12.6l-0.5,4c-1-0.1-1.9,0.4-2.4,1.2c-0.2,0.4-0.4,0.8-0.5,1.2c-0.1,0.4-0.1,0.9-0.1,1.3v10.4h-4.3v-11
			c0-1.1,0.2-2.2,0.5-3.3c0.3-0.8,0.8-1.6,1.4-2.2c0.6-0.6,1.4-1,2.2-1.3c0.9-0.3,1.8-0.4,2.7-0.4H161.2z"/>
		<path class="st0" d="M178.7,30.8h-4.3V19.6c0-0.4-0.1-0.9-0.2-1.3c-0.1-0.4-0.3-0.8-0.6-1.1c-0.3-0.3-0.6-0.6-1-0.7
			c-0.4-0.2-0.9-0.3-1.4-0.3c-0.5,0-0.9,0.1-1.4,0.3c-0.4,0.2-0.7,0.4-1,0.7c-0.3,0.3-0.5,0.7-0.6,1.1c-0.1,0.4-0.2,0.8-0.2,1.3
			v11.2h-4.3V12.8h4.3v2c0.6-0.7,1.3-1.3,2.1-1.7c0.8-0.4,1.6-0.6,2.5-0.6c0.9,0,1.7,0.1,2.5,0.5c0.7,0.3,1.4,0.8,1.9,1.3
			c0.5,0.6,0.9,1.3,1.2,2c0.3,0.8,0.4,1.7,0.4,2.6L178.7,30.8z"/>
	</g>
	<g>
		
			<linearGradient id="SVGID_1_" gradientUnits="userSpaceOnUse" x1="-4242.7305" y1="1041.0947" x2="-4237.7241" y2="1032.424" gradientTransform="matrix(-9.648625e-07 1 1 9.648625e-07 -1016.3558 4257.2192)">
			<stop  offset="0" style="stop-color:#4CB690"/>
			<stop  offset="0.1903" style="stop-color:#49B28C"/>
			<stop  offset="0.3875" style="stop-color:#40A680"/>
			<stop  offset="0.588" style="stop-color:#31926B"/>
			<stop  offset="0.7906" style="stop-color:#1C774E"/>
			<stop  offset="0.9931" style="stop-color:#015429"/>
			<stop  offset="1" style="stop-color:#005328"/>
		</linearGradient>
		<path class="st1" d="M16.3,17.3c-0.5-0.1-0.9,0.1-1.2,0.4c-0.2-0.5,0-1.1,0.5-1.4l5.4-3.1c0.8-0.4,1.8,0.1,1.8,1l0,5
			c-0.1-0.1-0.3-0.2-0.4-0.2L16.3,17.3z"/>
		
			<linearGradient id="SVGID_2_" gradientUnits="userSpaceOnUse" x1="-2260.0605" y1="-593.2779" x2="-2263.1157" y2="-596.3331" gradientTransform="matrix(-0.7071 0.7071 0.7071 0.7071 -1159.7191 2039.241)">
			<stop  offset="0" style="stop-color:#4CB690"/>
			<stop  offset="1" style="stop-color:#005328"/>
		</linearGradient>
		<path class="st2" d="M20.9,21.4l-5.4-3.1c-0.2-0.1-0.4-0.3-0.5-0.6c0.3-0.3,0.7-0.5,1.2-0.4l6,1.6c0.2,0,0.3,0.1,0.4,0.2v1.2
			C22.7,21.3,21.7,21.9,20.9,21.4z"/>
	</g>
	<g>
		<path d="M7.1,25L7.1,25C7.1,25,7.1,25,7.1,25z"/>
		
			<linearGradient id="SVGID_3_" gradientUnits="userSpaceOnUse" x1="1564.3942" y1="587.1088" x2="1543.7744" y2="566.489" gradientTransform="matrix(0.7071 -0.7071 0.7071 0.7071 -1488.0398 715.6293)">
			<stop  offset="0" style="stop-color:#4CB690"/>
			<stop  offset="0.4455" style="stop-color:#4BB48F"/>
			<stop  offset="0.606" style="stop-color:#46AD88"/>
			<stop  offset="0.7204" style="stop-color:#3DA27C"/>
			<stop  offset="0.8129" style="stop-color:#31926B"/>
			<stop  offset="0.8922" style="stop-color:#217E55"/>
			<stop  offset="0.961" style="stop-color:#0E653B"/>
			<stop  offset="1" style="stop-color:#005328"/>
		</linearGradient>
		<path class="st3" d="M27.9,30.8c-2.3,0.9-3.9,1.1-4.9,1.1c-0.3,0-0.5,0-0.8,0c-0.3,0-0.5-0.1-0.5-0.1c0,0,0,0,0,0
			c-0.7-0.2-1.4-0.6-1.9-1.1l-7.8-7.8l-5.2-5.2c0,0-0.3-0.2-0.6-0.7c-0.6-0.6-0.9-1.4-1.1-2.2c-0.1-0.4-0.1-0.9,0-1.4
			c0-0.1,0-0.2,0.1-0.3c0.1-0.3,0.2-0.6,0.3-0.9c-0.5,0.9-1.1,2.3-1.4,4.8c-0.6,4.3,2.7,7.7,2.9,7.9l0,0l1.5,1.5l7.8,7.8
			c2.4,2.4,5.7,3.2,8.9,2.4c1.6-0.4,3-1.3,4.1-2.4c1.1-1.1,1.9-2.5,2.4-4.1l1.5-5.8C33.2,24.7,31.9,29.2,27.9,30.8z"/>
		
			<linearGradient id="SVGID_4_" gradientUnits="userSpaceOnUse" x1="1571.0114" y1="561.5183" x2="1563.4679" y2="589.6705" gradientTransform="matrix(0.7071 -0.7071 0.7071 0.7071 -1488.0398 715.6293)">
			<stop  offset="0" style="stop-color:#4CB690"/>
			<stop  offset="0.4455" style="stop-color:#4BB48F"/>
			<stop  offset="0.606" style="stop-color:#46AD88"/>
			<stop  offset="0.7204" style="stop-color:#3DA27C"/>
			<stop  offset="0.8129" style="stop-color:#31926B"/>
			<stop  offset="0.8922" style="stop-color:#217E55"/>
			<stop  offset="0.961" style="stop-color:#0E653B"/>
			<stop  offset="1" style="stop-color:#005328"/>
		</linearGradient>
		<path class="st4" d="M25.4,0.4l-5.7,1.5c0.4-0.1,4.9-1.2,8.2,1.5c2.1,1.7,3.1,3.1,3.6,3.9c0,0,0,0,0,0c0,0,0,0.1,0,0.1
			c0,0,0,0,0,0.1c0.2,0.5,0.3,0.7,0.3,0.7c0,0,0,0,0,0c0.2,0.7,0.2,1.5,0,2.2L29,21l0,0l0,0l-2.1,7.8c-0.1,0.4-0.2,0.7-0.4,1
			c0,0,0,0,0,0.1c0,0,0,0,0,0.1c0,0,0,0,0,0c-0.5,0.8-1.3,1.6-2.7,1.9c-0.2,0-0.5,0.1-0.7,0.1c1,0,2.6-0.2,4.9-1.1
			c4-1.6,5.3-6,5.4-6.4l0,0l0,0l0.5-2l0,0l2.8-10.6c0.9-3.2,0-6.5-2.4-8.9C32,0.4,28.6-0.5,25.4,0.4z"/>
		
			<linearGradient id="SVGID_5_" gradientUnits="userSpaceOnUse" x1="1546.0416" y1="559.9564" x2="1576.8057" y2="568.1996" gradientTransform="matrix(0.7071 -0.7071 0.7071 0.7071 -1488.0398 715.6293)">
			<stop  offset="0" style="stop-color:#4CB690"/>
			<stop  offset="0.4455" style="stop-color:#4BB48F"/>
			<stop  offset="0.606" style="stop-color:#46AD88"/>
			<stop  offset="0.7204" style="stop-color:#3DA27C"/>
			<stop  offset="0.8129" style="stop-color:#31926B"/>
			<stop  offset="0.8922" style="stop-color:#217E55"/>
			<stop  offset="0.961" style="stop-color:#0E653B"/>
			<stop  offset="1" style="stop-color:#005328"/>
		</linearGradient>
		<path class="st5" d="M31.5,7.3c-0.4-0.8-1.4-2.2-3.6-3.9c-3.4-2.7-7.8-1.6-8.2-1.5l-2.1,0.6L7,5.3c-3.2,0.9-5.7,3.3-6.5,6.5
			c-0.9,3.2,0,6.5,2.4,8.9l4.2,4.2c-0.2-0.2-3.5-3.6-2.9-7.9c0.3-2.4,1-3.9,1.4-4.8c0.1-0.2,0.3-0.5,0.4-0.7
			c0.2-0.2,0.3-0.3,0.3-0.3c0.5-0.5,1.2-0.9,1.9-1.1l10.6-2.8l0,0L26,5.4c0,0,0.7-0.3,1.6-0.3c0.2,0,0.3,0,0.5,0
			C29,5.2,30,5.5,30.8,6.4C31.1,6.7,31.3,7,31.5,7.3z"/>
	</g>
</g>
</svg>
